<svg width="32" height="32" viewBox="0 0 32 32" xmlns="http://www.w3.org/2000/svg">
  <!-- Black background -->
  <rect width="32" height="32" fill="#000000"/>
  
  <!-- Green man illustration - exact replica from the image -->
  <g transform="translate(16,16) scale(0.5)">
    <!-- Main head shape - large and round -->
    <circle cx="0" cy="-2" r="12" fill="#8FBC8F" stroke="#2F4F2F" stroke-width="0.5"/>
    
    <!-- Forehead wrinkles/contours -->
    <path d="M -8 -12 Q -4 -13 0 -12 Q 4 -13 8 -12" stroke="#6B9A6B" stroke-width="0.3" fill="none"/>
    <path d="M -6 -10 Q -3 -11 0 -10 Q 3 -11 6 -10" stroke="#6B9A6B" stroke-width="0.2" fill="none"/>
    
    <!-- Eyebrows - thick and dark, slightly furrowed -->
    <path d="M -7 -9 Q -4 -10 -1 -9" stroke="#2F4F2F" stroke-width="0.6" fill="none"/>
    <path d="M 1 -9 Q 4 -10 7 -9" stroke="#2F4F2F" stroke-width="0.6" fill="none"/>
    
    <!-- Eyes - small, dark, and beady -->
    <ellipse cx="-4" cy="-5" rx="1.2" ry="0.8" fill="#2F4F2F"/>
    <ellipse cx="4" cy="-5" rx="1.2" ry="0.8" fill="#2F4F2F"/>
    
    <!-- Eye bags/contours -->
    <path d="M -6 -4 Q -4 -3 -2 -4" stroke="#6B9A6B" stroke-width="0.3" fill="none"/>
    <path d="M 2 -4 Q 4 -3 6 -4" stroke="#6B9A6B" stroke-width="0.3" fill="none"/>
    
    <!-- Nose - small and rounded -->
    <ellipse cx="0" cy="-2" rx="0.8" ry="1" fill="#7CAE7C"/>
    
    <!-- Mustache - small and dark -->
    <path d="M -2.5 0 Q -1.2 -0.5 0 0 Q 1.2 -0.5 2.5 0" stroke="#2F4F2F" stroke-width="0.4" fill="none"/>
    
    <!-- Mouth - thin, dark line, slightly downturned -->
    <path d="M -2 2 Q 0 1.8 2 2" stroke="#2F4F2F" stroke-width="0.3" fill="none"/>
    
    <!-- Jowls/double chin contours -->
    <path d="M -5 4 Q -3 5 -1 4" stroke="#6B9A6B" stroke-width="0.3" fill="none"/>
    <path d="M 1 4 Q 3 5 5 4" stroke="#6B9A6B" stroke-width="0.3" fill="none"/>
    
    <!-- Ears - large and somewhat pointed -->
    <ellipse cx="-10" cy="-2" rx="2.5" ry="3.5" fill="#8FBC8F" stroke="#2F4F2F" stroke-width="0.5"/>
    <ellipse cx="10" cy="-2" rx="2.5" ry="3.5" fill="#8FBC8F" stroke="#2F4F2F" stroke-width="0.5"/>
    
    <!-- Suit collar -->
    <path d="M -7 6 L -3 9 L 3 9 L 7 6" fill="#4F7F4F" stroke="#2F4F2F" stroke-width="0.5"/>
    
    <!-- Tie - dark, possibly black -->
    <polygon points="0,6 -1.5,8 -0.8,10 0.8,10 1.5,8" fill="#1a1a1a"/>
    
    <!-- Suit jacket - dark green -->
    <path d="M -8 6 L -4 9 L 4 9 L 8 6" fill="#2F4F2F" stroke="#2F4F2F" stroke-width="0.5"/>
    
    <!-- Button - small, dark circular button -->
    <circle cx="0" cy="7" r="0.4" fill="#1a1a1a"/>
  </g>
</svg>