<svg width="512" height="512" viewBox="0 0 512 512" xmlns="http://www.w3.org/2000/svg">
  <!-- Black background -->
  <rect width="512" height="512" fill="#000000"/>
  
  <!-- Cropped green man - head and upper body only -->
  <g transform="translate(256,256) scale(10)">
    <!-- Main head shape -->
    <circle cx="0" cy="-3" r="10" fill="#8FBC8F" stroke="#2F4F2F" stroke-width="0.8"/>
    
    <!-- Forehead wrinkles -->
    <path d="M -6 -10 Q -3 -11 0 -10 Q 3 -11 6 -10" stroke="#6B9A6B" stroke-width="0.4" fill="none"/>
    
    <!-- Eyebrows -->
    <path d="M -5 -8 Q -3 -9 -1 -8" stroke="#2F4F2F" stroke-width="0.5" fill="none"/>
    <path d="M 1 -8 Q 3 -9 5 -8" stroke="#2F4F2F" stroke-width="0.5" fill="none"/>
    
    <!-- Eyes -->
    <ellipse cx="-3" cy="-4" rx="1.2" ry="0.8" fill="#2F4F2F"/>
    <ellipse cx="3" cy="-4" rx="1.2" ry="0.8" fill="#2F4F2F"/>
    
    <!-- Eye bags -->
    <path d="M -4 -3 Q -3 -2.5 -2 -3" stroke="#6B9A6B" stroke-width="0.3" fill="none"/>
    <path d="M 2 -3 Q 3 -2.5 4 -3" stroke="#6B9A6B" stroke-width="0.3" fill="none"/>
    
    <!-- Nose -->
    <ellipse cx="0" cy="-2" rx="0.8" ry="1.2" fill="#7CAE7C"/>
    
    <!-- Mustache -->
    <path d="M -2.5 0 Q -1.2 -0.5 0 0 Q 1.2 -0.5 2.5 0" stroke="#2F4F2F" stroke-width="0.6" fill="none"/>
    
    <!-- Mouth -->
    <path d="M -2 2 Q 0 2.5 2 2" stroke="#2F4F2F" stroke-width="0.4" fill="none"/>
    
    <!-- Ears -->
    <ellipse cx="-8" cy="-3" rx="1.5" ry="2.5" fill="#8FBC8F" stroke="#2F4F2F" stroke-width="0.6"/>
    <ellipse cx="8" cy="-3" rx="1.5" ry="2.5" fill="#8FBC8F" stroke="#2F4F2F" stroke-width="0.6"/>
    
    <!-- Suit collar -->
    <path d="M -6 4 L -3 6 L 3 6 L 6 4" fill="#4F7F4F" stroke="#2F4F2F" stroke-width="0.6"/>
    
    <!-- Tie -->
    <polygon points="0,4 -1.2,5.5 -0.6,7 0.6,7 1.2,5.5" fill="#2F4F2F"/>
    
    <!-- Suit jacket top -->
    <path d="M -6 4 L -3 6 L 3 6 L 6 4" fill="#2F4F2F" stroke="#2F4F2F" stroke-width="0.6"/>
  </g>
</svg>